<svg width="914" height="400" fill="none" xmlns="http://www.w3.org/2000/svg">
  <path fill="#fff" d="M0 0h914v400H0z"/>
  <path d="M455.611 190.44c1 0 1.8-.8 1.8-1.8s-.8-1.8-1.8-1.8h-5.44c-1 0-1.8.8-1.8 1.8 0 1.04.8 1.8 1.8 1.8h.36l-3.36 8.56-3.4-8.56h.4c1 0 1.8-.8 1.8-1.8s-.8-1.8-1.8-1.8h-5.44c-1 0-1.8.8-1.8 1.8 0 1.04.8 1.8 1.8 1.8h.44l5.76 13.28c-1.32 3.28-2.52 5.32-5.08 5.32-1.16 0-2.08.84-2.08 2 0 1.16.92 2 2.08 2 4 0 6.56-2.8 8.28-6.72l7.04-15.88h.44zm20.465 5.48c0-6.56-3.36-9.64-8.76-9.64s-8.76 3.08-8.76 9.64c0 6.52 3.36 9.6 8.76 9.6s8.76-3.08 8.76-9.6zm-8.76 5.92c-2.88 0-4.4-2-4.4-5.92 0-3.96 1.52-5.96 4.4-5.96 2.88 0 4.4 2 4.4 5.96 0 3.92-1.52 5.92-4.4 5.92z" fill="#333"/>
</svg>
